<?xml version="1.0" standalone="no"?>
<!DOCTYPE svg PUBLIC "-//W3C//DTD SVG 20010904//EN"
 "http://www.w3.org/TR/2001/REC-SVG-20010904/DTD/svg10.dtd">
<svg version="1.0" xmlns="http://www.w3.org/2000/svg"
 width="1280.000000pt" height="1280.000000pt" viewBox="0 0 1280.000000 1280.000000"
 preserveAspectRatio="xMidYMid meet">
<g transform="translate(0.000000,1280.000000) scale(0.100000,-0.100000)"
fill="#000000" stroke="none">
<path d="M1725 12788 c-2 -7 -13 -60 -24 -117 -12 -58 -22 -106 -24 -107 -2
-2 -27 4 -57 12 -33 10 -107 18 -182 20 -69 2 -138 6 -151 9 -30 8 -67 -23
-67 -55 0 -12 -11 -42 -24 -68 -48 -97 -51 -130 -48 -529 l3 -373 -436 0
c-411 0 -436 1 -431 18 29 91 48 199 48 270 0 102 -29 170 -99 232 -45 40
-192 120 -219 120 -11 0 -14 -17 -14 -70 l0 -69 83 -62 c45 -34 86 -65 91 -70
4 -4 -17 -95 -48 -203 -31 -107 -56 -209 -56 -225 0 -63 -21 -61 556 -61 l524
0 0 -416 0 -417 -37 7 c-21 4 -88 9 -148 13 -188 10 -280 -35 -339 -168 -69
-152 -50 -377 45 -534 40 -68 61 -83 137 -101 97 -23 231 -11 325 30 16 8 17
-16 17 -420 l0 -429 -357 3 c-377 3 -472 -4 -549 -40 -56 -26 -100 -71 -120
-124 -27 -72 -10 -223 42 -359 3 -8 -12 -17 -43 -24 -26 -7 -65 -16 -85 -22
l-38 -10 0 -63 c0 -58 2 -64 22 -70 73 -19 210 4 262 45 73 58 87 181 37 329
-16 47 -28 86 -26 88 1 1 182 25 401 52 220 27 411 52 427 55 l27 5 0 -486 0
-485 25 -24 c13 -14 30 -25 37 -24 7 0 109 12 227 28 253 32 241 36 259 -87
16 -104 15 -180 -4 -285 -12 -65 -20 -87 -30 -83 -46 18 -181 37 -253 36 -47
-1 -100 2 -117 5 -25 6 -37 2 -53 -14 -12 -12 -21 -30 -21 -41 0 -12 -11 -42
-24 -68 -48 -97 -51 -130 -48 -527 l3 -370 -358 3 c-377 3 -472 -4 -549 -40
-56 -26 -100 -71 -120 -124 -27 -72 -10 -223 42 -359 3 -8 -12 -17 -43 -24
-26 -7 -65 -16 -85 -22 l-38 -10 0 -63 c0 -58 2 -64 23 -70 72 -19 209 4 261
45 73 58 87 181 37 329 -16 47 -28 86 -26 88 7 7 851 109 856 103 4 -3 20
-237 36 -519 27 -454 32 -514 48 -532 10 -11 27 -20 39 -20 11 0 101 23 200
51 128 37 184 49 195 42 37 -24 51 -234 25 -376 -14 -75 -19 -87 -34 -82 -60
19 -166 35 -236 35 -109 0 -174 -32 -220 -107 -56 -93 -59 -129 -56 -541 l3
-372 -436 0 c-411 0 -436 1 -431 18 29 91 48 199 48 270 0 102 -29 170 -99
232 -45 40 -192 120 -219 120 -11 0 -14 -17 -14 -70 l0 -69 83 -62 c45 -34 86
-65 91 -70 4 -4 -17 -95 -48 -203 -31 -107 -56 -209 -56 -225 0 -63 -21 -61
556 -61 l524 0 0 -490 0 -491 25 -24 c13 -14 30 -25 37 -24 7 0 109 12 227 28
253 32 241 36 259 -87 16 -104 15 -180 -4 -285 -14 -75 -19 -87 -34 -82 -60
19 -166 35 -236 35 -109 0 -174 -32 -220 -107 -56 -93 -59 -129 -56 -540 l3
-373 -436 0 c-411 0 -436 1 -431 18 29 91 48 199 48 270 0 102 -29 170 -99
232 -45 40 -192 120 -219 120 -11 0 -14 -17 -14 -70 l0 -69 83 -62 c45 -34 86
-65 91 -70 4 -4 -17 -95 -48 -203 -31 -107 -56 -209 -56 -225 0 -63 -21 -61
556 -61 l524 0 0 -486 c0 -312 4 -492 10 -504 22 -41 39 -41 284 -10 130 16
238 30 240 30 2 0 21 -43 42 -95 35 -89 36 -96 21 -113 -34 -38 -23 -42 108
-42 102 0 125 3 125 14 0 8 -11 23 -23 33 -19 15 -25 31 -30 89 -15 163 -76
244 -212 279 -74 19 -143 19 -265 0 -52 -8 -98 -15 -103 -15 -4 0 -6 183 -5
408 l3 407 383 3 c302 2 382 0 382 -10 0 -7 -7 -82 -15 -167 -19 -194 -11
-253 42 -331 73 -105 163 -150 302 -150 140 0 305 60 395 142 39 36 49 53 62
107 18 72 8 161 -27 240 -10 24 -18 46 -15 48 2 2 183 26 402 53 220 27 411
52 427 55 l27 5 0 -411 c0 -246 -4 -408 -9 -405 -20 13 -229 23 -289 15 -167
-23 -253 -127 -271 -326 l-7 -83 71 0 c68 0 71 1 88 29 34 58 98 131 130 148
28 16 60 18 239 18 156 0 210 3 220 13 10 10 14 120 18 510 l5 497 383 3 c302
2 382 0 382 -10 0 -7 -7 -82 -15 -167 -19 -194 -11 -253 42 -331 73 -105 163
-150 302 -150 140 0 305 60 395 142 39 36 49 53 62 107 18 72 8 161 -27 240
-10 24 -18 46 -15 48 7 8 851 110 857 104 4 -3 20 -237 36 -519 27 -454 32
-514 48 -532 10 -11 28 -20 39 -20 12 0 109 25 215 56 107 30 197 51 202 47 4
-4 27 -57 51 -118 l44 -110 97 -3 c80 -2 97 0 97 12 0 8 -10 23 -23 33 -19 15
-25 31 -30 86 -10 107 -26 147 -82 202 -59 60 -101 75 -208 75 -65 0 -210 -29
-280 -55 -16 -7 -17 16 -15 426 l3 434 418 3 417 2 0 -43 c0 -24 -16 -100 -35
-170 -49 -179 -52 -214 -26 -266 33 -64 87 -117 149 -148 53 -26 65 -28 182
-28 115 1 133 3 219 33 102 36 216 91 250 123 39 37 24 161 -38 306 -16 37
-28 69 -27 71 2 1 183 25 402 52 220 27 411 52 427 55 l27 5 0 -431 c0 -407
-1 -431 -17 -424 -102 39 -290 50 -357 21 -59 -25 -104 -63 -137 -115 -34 -54
-48 -98 -58 -192 l-7 -69 72 0 72 0 25 43 c41 69 114 144 153 157 44 15 81 8
212 -37 108 -37 143 -38 161 -4 7 12 71 964 71 1054 0 4 196 7 435 7 l435 0
14 23 c8 12 17 47 21 77 43 354 103 447 266 406 181 -46 224 -106 184 -259 -8
-32 -26 -80 -40 -107 -30 -58 -32 -101 -7 -123 17 -15 69 -17 541 -17 408 0
522 -3 526 -12 2 -7 13 -161 25 -343 11 -181 23 -362 27 -401 l5 -71 -58 8
c-101 15 -304 12 -357 -5 -133 -41 -200 -138 -215 -314 l-8 -82 71 0 c68 0 71
1 88 29 34 58 98 131 130 148 28 16 60 18 239 18 156 0 210 3 220 13 10 10 14
120 18 510 l5 497 500 5 500 5 12 26 c11 23 9 46 -12 149 -14 68 -25 149 -25
180 0 77 25 102 137 136 67 20 86 31 96 51 9 20 8 30 -4 51 -21 38 -79 56
-179 56 -98 1 -145 -19 -193 -82 -46 -60 -59 -121 -65 -295 l-4 -157 -382 2
-381 3 -3 433 c-1 237 1 432 5 432 5 0 44 -12 88 -26 160 -51 278 -41 363 31
150 129 181 431 63 617 -42 66 -120 125 -178 134 -46 7 -187 1 -291 -12 l-52
-7 2 414 3 414 500 5 500 5 12 26 c11 23 9 46 -12 149 -14 68 -25 149 -25 180
0 77 25 102 137 136 67 20 86 31 96 51 9 20 8 30 -4 51 -21 38 -79 56 -179 56
-98 1 -145 -19 -193 -82 -46 -60 -59 -121 -65 -295 l-4 -157 -382 2 -381 3 -3
524 c-2 471 -4 526 -19 543 -9 10 -26 18 -38 18 -11 0 -120 -25 -240 -55 -121
-30 -223 -55 -227 -55 -13 0 -50 186 -51 257 -2 92 17 122 89 141 51 14 202 4
305 -20 54 -13 95 -5 108 21 7 12 71 964 71 1054 0 4 171 7 380 7 239 0 380
-4 380 -10 0 -5 -7 -58 -16 -117 -30 -204 -11 -325 63 -395 59 -56 188 -103
317 -115 58 -5 64 -4 80 18 18 26 24 169 6 169 -12 0 -46 -32 -51 -49 -4 -11
-222 69 -243 89 -6 6 1 95 17 222 15 117 27 227 27 244 0 65 12 64 -496 66
l-459 3 -3 433 c-1 237 1 432 5 432 5 0 44 -12 88 -26 160 -51 278 -41 363 31
150 129 181 431 63 617 -42 66 -120 125 -178 134 -46 7 -187 1 -291 -12 l-52
-7 2 414 3 414 378 3 c242 1 377 -1 377 -8 0 -5 -7 -58 -16 -117 -30 -204 -11
-325 63 -395 59 -56 188 -103 317 -115 58 -5 64 -4 80 18 18 26 24 169 6 169
-12 0 -46 -32 -51 -49 -4 -11 -222 69 -243 89 -6 6 1 95 17 222 15 117 27 227
27 244 0 65 12 64 -496 66 l-459 3 -3 524 c-2 471 -4 526 -19 543 -9 10 -26
18 -38 18 -11 0 -120 -25 -240 -55 -121 -30 -222 -52 -226 -47 -13 14 -29 139
-29 223 0 166 58 198 365 199 84 0 139 5 155 13 l25 13 5 499 5 500 459 3
c410 2 462 4 478 19 16 14 18 34 18 177 0 89 5 178 10 198 14 50 47 74 147
104 67 20 86 31 96 51 9 20 8 30 -4 51 -21 38 -79 56 -179 56 -98 1 -145 -19
-193 -82 -46 -60 -59 -121 -65 -295 l-4 -157 -382 2 -381 3 -3 524 c-2 471 -4
526 -19 543 -9 10 -26 18 -38 18 -11 0 -120 -25 -240 -55 -121 -30 -225 -55
-231 -55 -6 0 -32 54 -58 120 l-48 120 -70 0 -70 0 4 -97 c5 -114 27 -176 86
-236 78 -80 230 -100 396 -52 47 14 88 25 91 25 3 0 5 -193 5 -430 l0 -430
-425 0 c-234 0 -425 3 -425 8 0 4 10 36 21 72 27 82 29 212 6 291 -39 132
-193 220 -387 221 -144 0 -241 -34 -331 -119 -65 -61 -83 -116 -81 -248 1 -55
6 -125 11 -155 5 -30 6 -58 2 -63 -4 -4 -176 -6 -382 -5 l-374 3 -3 524 c-2
471 -4 526 -19 543 -9 10 -26 18 -38 18 -11 0 -120 -25 -240 -55 -121 -30
-225 -55 -231 -55 -6 0 -32 54 -58 120 l-48 120 -70 0 -70 0 4 -97 c5 -114 27
-176 86 -236 78 -80 230 -100 396 -52 47 14 88 25 91 25 3 0 5 -192 5 -427 l0
-428 -352 3 c-512 5 -587 -13 -653 -152 -22 -47 -7 -156 39 -279 20 -51 32
-95 28 -98 -13 -11 -182 -31 -266 -31 -107 0 -221 20 -241 42 -14 15 -13 37
10 215 14 109 25 212 25 230 0 66 14 65 -496 67 l-459 3 -3 420 c-1 231 0 425
2 431 3 8 32 2 88 -18 107 -39 236 -49 302 -24 51 20 123 92 156 157 27 51 90
218 90 237 0 9 -26 12 -95 12 -86 0 -113 -8 -85 -25 5 -3 10 -12 10 -20 0 -19
-101 -186 -116 -192 -6 -2 -40 4 -75 13 -41 12 -107 19 -184 20 -66 1 -132 5
-147 9 -38 10 -68 -23 -68 -74 0 -22 -7 -70 -16 -108 -14 -57 -15 -100 -9
-268 17 -460 20 -567 16 -571 -8 -7 -911 -4 -911 4 0 4 10 36 21 72 27 82 29
212 6 291 -39 132 -193 220 -387 221 -144 0 -241 -34 -331 -119 -65 -61 -83
-116 -81 -248 1 -55 6 -125 11 -155 5 -30 6 -58 2 -63 -4 -4 -176 -6 -382 -5
l-374 3 -3 524 c-2 471 -4 526 -19 543 -9 10 -26 18 -38 18 -11 0 -120 -25
-240 -55 -121 -30 -225 -55 -231 -55 -6 0 -32 54 -58 120 l-48 120 -70 0 -70
0 4 -97 c5 -114 27 -176 86 -236 78 -80 230 -100 396 -52 47 14 88 25 91 25 3
0 5 -193 5 -430 l0 -430 -425 0 c-234 0 -425 4 -425 8 0 5 10 35 21 68 25 70
30 195 9 234 -7 13 -12 42 -12 62 1 25 -4 43 -16 53 -9 9 -37 34 -61 56 -125
114 -308 138 -472 63 -67 -31 -159 -126 -196 -203 -23 -47 -27 -67 -27 -140 0
-50 8 -109 17 -140 10 -30 17 -56 17 -58 0 -2 -179 -2 -397 -1 l-398 3 -3 434
c-2 410 -1 433 15 426 153 -62 297 -81 377 -51 51 20 123 92 156 157 27 51 90
218 90 237 0 9 -32 12 -125 12 -92 0 -127 -3 -130 -12z m863 -814 c42 -9 93
-23 113 -32 l37 -17 -54 -185 c-29 -102 -54 -199 -54 -217 0 -66 -24 -63 556
-63 l524 0 0 -486 c0 -312 4 -492 10 -504 22 -42 39 -42 260 -5 242 41 275 40
319 -10 76 -87 90 -313 23 -395 -28 -35 -129 -47 -254 -30 -57 7 -136 15 -176
16 -106 5 -112 -4 -112 -148 0 -62 -5 -143 -10 -180 -16 -108 -50 -526 -50
-610 l0 -78 -270 0 c-379 0 -517 -17 -647 -80 -124 -61 -133 -95 -83 -318 17
-74 27 -139 23 -143 -4 -4 -51 -21 -103 -39 -83 -29 -104 -32 -167 -27 -76 6
-139 29 -188 70 l-30 25 23 114 c25 128 28 215 8 240 -21 29 -174 96 -281 125
-94 25 -116 26 -382 31 l-283 4 0 522 c0 507 -1 523 -20 541 -21 19 -25 19
-150 -10 -100 -23 -241 -22 -300 1 -64 24 -106 58 -135 108 l-25 43 21 49 c27
64 63 110 102 132 28 15 61 17 254 17 169 0 225 3 235 13 10 10 14 120 18 510
l5 497 500 5 500 5 13 27 c11 24 10 38 -13 110 -67 213 -45 347 64 376 54 15
93 14 179 -4z m2625 -30 c51 -11 77 -22 77 -31 0 -8 -22 -92 -50 -188 -27 -96
-50 -187 -50 -204 0 -63 -22 -61 556 -61 l524 0 0 -413 0 -413 -127 0 c-157 1
-203 -13 -294 -87 -105 -87 -146 -190 -136 -341 6 -90 33 -173 76 -233 16 -22
32 -49 35 -61 14 -44 33 -52 120 -52 46 0 125 9 177 20 153 31 209 38 209 26
1 -34 -52 -863 -55 -873 -4 -10 -101 -13 -444 -13 -242 0 -442 3 -444 8 -2 4
6 52 20 107 13 55 26 144 29 197 4 85 3 99 -13 113 -10 9 -38 34 -62 56 -125
114 -308 138 -472 63 -67 -31 -159 -126 -197 -203 -25 -52 -27 -65 -28 -196
l-2 -140 -378 0 -379 0 -3 355 c-2 314 6 481 23 499 3 2 39 -6 81 -19 169 -50
279 -35 362 48 68 69 121 139 151 202 22 47 26 68 26 150 0 81 -4 103 -26 150
-33 71 -80 125 -146 167 -29 18 -53 37 -53 41 0 5 -19 19 -42 33 -37 21 -54
24 -123 22 -44 -1 -118 -11 -163 -21 -59 -13 -85 -16 -88 -8 -2 6 -3 191 -2
411 l3 400 459 3 c397 2 462 4 477 18 14 13 17 42 21 192 6 214 17 253 82 284
49 23 145 20 269 -8z m5120 0 c51 -11 77 -22 77 -31 0 -8 -22 -92 -50 -188
-27 -96 -50 -187 -50 -204 0 -63 -22 -61 556 -61 l524 0 0 -413 0 -413 -127 0
c-157 1 -203 -13 -294 -87 -105 -87 -146 -190 -136 -341 6 -90 33 -173 76
-233 16 -22 32 -49 35 -61 14 -44 33 -52 124 -52 59 0 121 8 190 25 57 14 110
25 118 25 12 0 14 -64 14 -440 l0 -440 -265 0 c-374 0 -512 -17 -642 -80 -124
-61 -133 -95 -83 -318 17 -74 27 -139 23 -143 -4 -4 -51 -21 -103 -39 -83 -29
-104 -32 -167 -27 -79 6 -141 30 -191 73 l-33 29 26 199 c14 109 25 213 25
231 0 66 14 65 -496 67 l-459 3 -3 433 c-1 237 1 432 5 432 5 0 44 -12 88 -26
177 -56 289 -41 382 51 145 146 156 394 25 563 -16 21 -34 53 -42 72 -7 19
-19 42 -27 51 -17 21 -138 33 -311 32 l-122 -1 2 411 3 412 459 3 c397 2 462
4 477 18 14 13 17 42 21 192 6 214 17 253 82 284 49 23 145 20 269 -8z m-3107
-656 c-1 -203 6 -302 24 -322 6 -9 28 -18 49 -22 20 -4 62 -20 93 -35 166 -83
392 -78 575 11 96 48 98 51 91 179 -4 72 -11 99 -41 163 l-35 77 31 6 c18 3
196 25 397 50 201 25 377 47 393 50 l27 5 0 -481 c0 -308 4 -487 10 -499 21
-40 40 -41 246 -15 108 14 207 25 220 25 44 0 89 -53 112 -132 12 -40 22 -91
22 -113 0 -36 -58 -227 -74 -242 -3 -4 -68 6 -143 21 -76 15 -170 30 -210 33
-72 6 -73 6 -103 -27 -73 -78 -94 -244 -88 -682 l5 -318 -438 0 c-242 0 -439
3 -439 6 0 3 23 56 52 117 48 103 52 119 56 200 4 74 2 91 -13 107 -10 11 -25
20 -34 20 -9 0 -43 20 -76 45 -108 81 -251 111 -386 81 -99 -22 -167 -63 -230
-138 -85 -102 -94 -130 -95 -293 l-2 -140 -378 0 -379 0 -3 524 c-2 471 -4
526 -19 543 -9 10 -26 18 -37 18 -12 0 -122 -25 -244 -56 -123 -30 -226 -54
-228 -51 -2 2 -13 44 -24 93 -26 120 -26 219 0 262 35 58 70 66 306 72 158 4
215 8 227 19 15 12 17 60 17 506 0 270 3 495 7 498 3 4 176 7 383 7 l377 0 -1
-172z m-2013 -1904 c51 -11 77 -22 77 -31 0 -8 -22 -92 -50 -188 -27 -96 -50
-187 -50 -204 0 -63 -22 -61 556 -61 l524 0 0 -490 0 -491 25 -24 c13 -14 30
-25 37 -24 7 0 109 12 227 28 l213 27 33 -35 c37 -39 75 -149 75 -216 0 -35
-58 -227 -73 -242 -9 -8 -72 15 -200 73 -65 30 -138 59 -161 64 -80 18 -144
-17 -164 -91 -14 -53 3 -561 27 -789 12 -107 21 -203 21 -212 0 -17 -30 -18
-496 -18 -469 0 -496 1 -489 18 5 9 16 46 26 82 10 36 29 92 43 125 32 75 32
106 2 171 -72 154 -270 231 -454 175 -87 -27 -143 -62 -195 -123 -73 -87 -82
-111 -81 -213 0 -50 8 -116 17 -150 10 -32 17 -65 17 -72 0 -11 -78 -13 -407
-11 l-408 3 -3 433 c-1 237 1 432 5 432 5 0 44 -12 88 -26 177 -56 289 -41
382 51 145 146 156 394 25 563 -16 21 -34 53 -42 72 -7 19 -19 42 -27 51 -18
22 -134 34 -301 32 l-132 -2 2 412 3 412 459 3 c397 2 462 4 477 18 14 13 17
42 21 192 6 214 17 253 82 284 49 23 145 20 269 -8z m2612 0 c44 -9 81 -17 83
-19 1 -1 -34 -86 -78 -189 -44 -103 -80 -199 -80 -214 0 -14 7 -34 17 -44 15
-17 45 -18 540 -18 l523 0 0 -413 0 -413 -127 0 c-152 1 -208 -14 -277 -76
-57 -49 -90 -104 -111 -183 -19 -71 -22 -223 -5 -286 14 -52 88 -211 104 -221
25 -17 183 -8 284 17 57 14 110 25 118 25 12 0 14 -65 14 -445 l0 -445 -440 0
c-242 0 -440 3 -440 6 0 3 23 56 52 117 48 103 52 119 56 200 4 74 2 91 -13
107 -10 11 -24 20 -30 20 -7 0 -43 21 -80 46 -121 83 -251 110 -386 80 -99
-22 -167 -63 -230 -138 -85 -102 -94 -130 -95 -293 l-2 -140 -381 -3 c-231 -1
-381 1 -381 7 0 5 -11 184 -25 398 -24 373 -25 432 -4 516 9 33 13 37 32 32
24 -7 144 -56 242 -99 105 -45 172 -31 247 53 131 147 135 388 10 549 -16 21
-34 53 -42 72 -7 19 -19 42 -27 51 -18 22 -134 34 -301 32 l-132 -2 2 412 3
412 459 3 c395 2 462 4 476 17 15 13 18 43 22 188 6 226 22 267 117 298 36 12
191 3 286 -17z m1961 -656 c-1 -209 6 -305 25 -323 16 -16 135 -64 233 -94
125 -39 310 -23 417 35 70 39 96 71 114 143 14 53 15 74 5 130 -6 36 -20 86
-31 110 -10 24 -18 46 -15 48 2 2 183 26 402 53 220 27 411 52 427 55 l27 5 0
-481 c0 -308 4 -487 10 -499 22 -41 39 -42 286 -10 130 17 239 28 242 26 15
-16 72 -209 72 -246 0 -39 -57 -230 -74 -247 -3 -4 -68 6 -143 21 -76 15 -170
30 -210 33 -72 6 -73 6 -103 -27 -73 -78 -94 -244 -88 -677 4 -269 3 -313 -9
-313 -8 0 -108 10 -221 21 -274 29 -582 32 -664 6 -31 -9 -71 -29 -88 -44 -37
-31 -37 -17 4 -311 15 -107 25 -199 23 -206 -3 -6 -50 -27 -105 -45 -89 -30
-109 -33 -171 -28 -74 6 -137 30 -184 69 l-28 23 55 222 c31 122 56 226 56
231 0 4 -6 17 -14 28 -14 18 -34 19 -513 24 l-498 5 -3 524 c-2 471 -4 526
-19 543 -9 10 -26 18 -37 18 -12 0 -122 -25 -245 -55 -123 -31 -225 -54 -227
-52 -2 2 -13 44 -24 93 -26 120 -26 219 0 262 35 58 70 66 306 72 158 4 215 8
227 19 15 12 17 60 17 506 0 270 3 495 7 498 3 4 176 7 383 7 l377 0 -1 -172z
m-7632 52 c11 0 16 -5 13 -12 -45 -102 -59 -148 -59 -192 -1 -88 4 -140 14
-159 11 -22 65 -46 204 -93 86 -29 116 -34 190 -34 105 0 199 20 265 56 70 39
96 71 114 143 14 53 15 74 5 130 -6 36 -20 86 -31 110 -10 24 -18 46 -15 48 2
2 183 26 402 53 220 27 411 52 427 55 l27 5 0 -486 0 -485 25 -24 c13 -14 30
-25 37 -24 7 0 109 12 227 28 l213 27 33 -35 c37 -39 75 -149 75 -216 0 -36
-58 -227 -74 -242 -3 -4 -68 6 -143 21 -76 15 -170 30 -210 33 -72 6 -73 6
-103 -27 -73 -78 -94 -244 -88 -682 l5 -318 -146 0 c-320 0 -646 -39 -769 -91
-26 -11 -59 -32 -74 -47 -37 -34 -37 -76 2 -250 17 -74 27 -139 23 -143 -4 -4
-51 -21 -103 -39 -83 -29 -104 -32 -167 -27 -75 6 -139 29 -186 69 l-28 23 55
222 c31 122 56 226 56 231 0 4 -6 17 -14 28 -14 18 -34 19 -513 24 l-498 5 -3
433 c-1 237 1 432 5 432 5 0 44 -12 88 -26 177 -56 289 -41 382 51 147 148
156 402 19 569 -18 23 -38 58 -45 78 -7 20 -17 41 -24 46 -20 15 -154 27 -294
25 l-133 -2 0 403 c0 221 2 405 5 407 2 3 181 -19 397 -48 216 -29 401 -53
412 -53z m2992 -1894 c25 -25 34 -43 34 -67 0 -18 16 -65 36 -105 l35 -72 -29
-58 c-27 -55 -62 -157 -62 -183 0 -7 11 -23 25 -36 l24 -25 561 0 c527 0 560
-1 560 -17 0 -10 -11 -182 -25 -383 -14 -201 -25 -379 -25 -396 l0 -31 -132 1
c-162 1 -207 -12 -299 -87 -105 -87 -146 -190 -136 -341 6 -90 33 -173 76
-233 16 -22 32 -49 35 -61 17 -51 21 -52 272 -52 180 0 234 -3 234 -12 0 -37
-52 -805 -55 -815 -3 -10 -101 -13 -444 -13 -242 0 -442 3 -444 8 -2 4 6 52
20 107 13 55 26 144 29 197 4 85 3 99 -13 113 -10 9 -38 34 -62 56 -125 114
-308 138 -472 63 -67 -31 -159 -126 -197 -203 -25 -52 -27 -65 -28 -196 l-2
-140 -378 0 -379 0 -3 524 c-2 471 -4 526 -19 543 -9 10 -26 18 -38 18 -11 0
-120 -25 -240 -55 -121 -30 -223 -55 -227 -55 -13 0 -50 188 -51 265 -1 94 16
135 63 155 44 18 175 7 287 -26 98 -28 135 -27 152 5 7 12 71 965 71 1052 0 2
199 3 442 1 244 -1 470 1 503 5 51 7 62 12 73 35 11 24 10 37 -10 100 -32 102
-31 242 1 313 23 53 73 112 106 125 11 5 37 9 59 9 30 1 45 -6 72 -33z m2718
-59 c61 -21 64 -35 32 -114 -15 -37 -54 -117 -87 -177 -62 -115 -70 -148 -42
-178 15 -17 45 -18 540 -18 l523 0 0 -486 c0 -312 4 -492 10 -504 21 -40 40
-41 246 -15 108 14 207 25 220 25 45 0 89 -53 114 -136 28 -96 24 -147 -22
-269 l-33 -90 -96 -3 c-89 -2 -105 0 -199 33 -57 19 -109 35 -117 35 -21 0
-53 -38 -53 -64 0 -14 -9 -40 -20 -58 -10 -18 -27 -62 -37 -98 -16 -57 -18
-110 -18 -433 l0 -367 -263 0 c-371 0 -510 -17 -639 -80 -83 -41 -113 -78
-113 -140 0 -60 20 -117 70 -200 21 -36 42 -77 45 -92 7 -26 5 -27 -77 -52
-144 -43 -177 -49 -251 -43 -76 6 -144 30 -190 69 l-28 23 55 222 c31 122 56
226 56 231 0 4 -6 17 -14 28 -14 18 -34 19 -513 24 l-498 5 -3 524 c-2 471 -4
526 -19 543 -9 10 -26 18 -37 18 -12 0 -122 -25 -244 -56 -123 -30 -226 -54
-228 -51 -13 13 -44 194 -44 260 0 94 15 127 66 152 51 24 194 16 329 -19 118
-31 137 -32 158 -8 15 17 17 72 19 543 l3 524 461 3 c432 2 462 3 478 20 11
13 19 51 26 118 15 155 46 238 113 303 71 67 207 88 321 48z m-5758 -659 c0
-220 6 -304 24 -322 17 -17 134 -64 234 -95 125 -39 310 -23 417 35 70 39 96
71 114 143 14 53 15 74 5 130 -6 36 -20 86 -31 110 -10 24 -18 46 -15 48 2 2
183 26 402 53 220 27 411 52 427 55 l27 5 0 -408 0 -408 -132 0 c-153 0 -190
-10 -276 -76 -96 -74 -141 -164 -150 -301 -2 -42 1 -104 7 -138 20 -99 38
-134 131 -246 8 -10 64 -13 215 -13 l205 0 0 -415 0 -415 -265 0 c-374 0 -512
-17 -642 -80 -34 -17 -74 -45 -89 -63 -25 -30 -26 -35 -21 -112 3 -44 15 -109
27 -145 12 -36 22 -83 23 -104 l2 -39 -95 -34 c-85 -30 -103 -34 -171 -30 -81
5 -142 27 -192 69 l-28 23 55 222 c31 122 56 226 56 231 0 4 -6 17 -14 28 -14
18 -34 19 -513 24 l-498 5 -3 414 -2 413 57 -6 c272 -28 332 -18 420 69 147
148 156 402 19 569 -18 23 -38 58 -45 78 -15 47 -32 60 -73 57 -18 -1 -60 4
-93 11 -41 9 -95 10 -172 6 l-113 -7 0 409 c0 225 3 412 7 415 3 4 176 7 383
7 l377 0 -1 -172z m7680 0 c0 -220 6 -304 24 -322 17 -17 134 -64 234 -95 160
-49 373 -14 479 79 72 62 83 242 28 420 l-18 57 201 6 c111 4 303 10 429 14
l227 6 0 -409 0 -410 -132 0 c-153 0 -190 -10 -276 -76 -96 -74 -141 -164
-150 -301 -2 -42 1 -104 7 -138 20 -99 38 -134 131 -246 8 -10 64 -13 215 -13
l205 0 0 -415 0 -415 -265 0 c-374 0 -512 -17 -642 -80 -34 -17 -74 -45 -89
-63 -25 -30 -26 -35 -21 -112 3 -44 15 -109 27 -145 12 -36 22 -83 23 -104 l2
-39 -95 -34 c-85 -30 -103 -34 -171 -30 -84 5 -144 28 -197 73 l-33 29 26 199
c14 109 25 213 25 231 0 66 14 65 -496 67 l-459 3 0 415 0 415 43 3 c24 2 75
-4 112 -12 144 -33 234 -13 317 70 145 145 156 393 25 562 -16 21 -34 53 -42
72 -7 19 -19 42 -27 51 -17 21 -138 33 -310 32 l-123 -1 0 407 c0 224 3 411 7
414 3 4 176 7 383 7 l377 0 -1 -172z m-4638 -1874 c42 -9 93 -23 113 -32 l37
-17 -54 -185 c-29 -102 -54 -199 -54 -217 0 -66 -24 -63 556 -63 l524 0 0
-413 0 -413 -127 0 c-157 1 -203 -13 -294 -87 -105 -87 -146 -190 -136 -341 6
-90 33 -173 76 -233 16 -22 32 -49 35 -61 14 -44 33 -52 120 -52 46 0 125 9
177 20 52 10 120 23 152 28 54 9 57 8 57 -12 0 -12 -11 -194 -25 -406 -14
-212 -25 -401 -25 -421 l0 -36 -202 5 c-420 10 -715 -45 -803 -150 -34 -40
-32 -87 5 -256 17 -74 27 -139 23 -143 -4 -4 -49 -21 -99 -38 -131 -45 -210
-40 -348 19 l-44 18 59 234 c32 128 59 238 59 244 0 5 -6 19 -14 30 -14 18
-34 19 -513 24 l-498 5 -3 524 c-2 471 -4 526 -19 543 -9 10 -26 18 -37 18
-12 0 -122 -25 -244 -56 -123 -30 -226 -54 -228 -51 -12 12 -44 192 -44 253 0
57 4 78 23 105 37 56 90 68 307 69 128 0 193 4 210 13 l25 13 5 499 5 500 500
5 500 5 13 27 c11 24 10 38 -13 110 -67 213 -45 347 64 376 54 15 93 14 179
-4z m-3042 -686 c0 -220 6 -304 24 -322 17 -17 134 -64 234 -95 118 -36 303
-24 405 28 66 34 99 68 117 124 27 81 23 159 -13 245 -17 39 -29 72 -26 72 11
0 810 100 836 105 l27 5 0 -408 0 -408 -127 0 c-157 1 -203 -13 -294 -87 -105
-87 -146 -190 -136 -341 6 -90 33 -173 76 -233 16 -22 32 -49 35 -61 14 -44
33 -52 124 -52 59 0 121 8 190 25 57 14 110 25 118 25 12 0 14 -64 14 -440 l0
-440 -265 0 c-374 0 -512 -17 -642 -80 -124 -61 -133 -95 -83 -318 17 -74 27
-139 23 -143 -4 -4 -49 -21 -99 -38 -131 -45 -210 -40 -348 19 l-44 18 59 234
c32 128 59 238 59 244 0 5 -6 19 -14 30 -14 18 -34 19 -513 24 l-498 5 -3 433
c-2 424 -2 432 18 432 10 0 57 -9 103 -20 203 -47 270 -38 354 46 147 147 156
401 19 568 -18 23 -38 58 -45 78 -7 20 -17 41 -24 46 -20 15 -154 27 -294 25
l-133 -2 0 408 c0 224 3 411 7 414 3 4 176 7 383 7 l377 0 -1 -172z m5120 0
c0 -220 6 -304 24 -322 19 -19 151 -71 243 -96 139 -39 326 -21 462 44 104 49
105 51 105 162 0 101 -19 177 -59 233 l-22 30 33 6 c18 3 197 25 398 50 201
25 377 47 393 50 l27 5 0 -408 0 -408 -127 0 c-157 1 -203 -13 -294 -87 -105
-87 -146 -190 -136 -341 6 -90 33 -173 76 -233 16 -22 32 -49 35 -61 14 -44
33 -52 124 -52 59 0 121 8 190 25 57 14 110 25 118 25 12 0 14 -64 14 -440 l0
-440 -265 0 c-374 0 -512 -17 -642 -80 -140 -69 -145 -126 -33 -364 33 -69 39
-90 29 -97 -32 -20 -239 -69 -289 -69 -62 0 -141 18 -212 48 l-46 20 59 234
c32 128 59 238 59 244 0 5 -6 19 -14 30 -14 18 -34 19 -513 24 l-498 5 -3 524
c-2 471 -4 526 -19 543 -9 10 -26 18 -37 18 -12 0 -122 -25 -244 -56 -123 -30
-226 -54 -228 -51 -2 2 -13 44 -24 93 -26 120 -26 219 0 262 35 58 70 66 306
72 158 4 215 8 227 19 15 12 17 60 17 506 0 270 3 495 7 498 3 4 176 7 383 7
l377 0 -1 -172z m2560 0 c-1 -209 6 -305 25 -323 16 -16 135 -64 233 -94 118
-36 303 -24 405 28 66 34 99 68 117 124 27 81 23 159 -13 245 -17 39 -29 72
-26 72 11 0 810 100 836 105 l27 5 0 -481 c0 -308 4 -487 10 -499 22 -41 39
-42 286 -10 130 17 239 28 242 26 15 -16 72 -209 72 -246 0 -39 -57 -230 -74
-247 -3 -4 -68 6 -143 21 -76 15 -170 30 -210 33 -72 6 -73 6 -103 -27 -73
-78 -94 -244 -88 -682 l5 -318 -438 0 c-241 0 -440 3 -442 8 -2 4 6 52 19 107
39 168 41 214 12 277 -83 180 -320 248 -529 152 -67 -31 -159 -126 -197 -203
-25 -52 -27 -65 -28 -196 l-2 -140 -378 0 -379 0 -3 524 c-2 471 -4 526 -19
543 -9 10 -26 18 -37 18 -12 0 -122 -25 -244 -56 -123 -30 -226 -54 -228 -51
-2 2 -13 44 -24 93 -26 120 -26 219 0 262 35 58 70 66 306 72 158 4 215 8 227
19 15 12 17 60 17 506 0 270 3 495 7 498 3 4 176 7 383 7 l377 0 -1 -172z"/>
<path d="M12757 12202 c-26 -28 -21 -65 13 -97 l30 -29 0 72 c0 77 -11 90 -43
54z"/>
<path d="M12757 4522 c-26 -28 -21 -65 13 -97 l30 -29 0 72 c0 77 -11 90 -43
54z"/>
<path d="M12757 1962 c-26 -28 -21 -65 13 -97 l30 -29 0 72 c0 77 -11 90 -43
54z"/>
</g>
</svg>
